<svg id="visual" viewBox="0 0 1800 1000" width="1800" height="1000" xmlns="http://www.w3.org/2000/svg" xmlns:xlink="http://www.w3.org/1999/xlink" version="1.1"><rect x="0" y="0" width="1800" height="1000" fill="#001122"></rect><path d="M0 745L257 670L514 585L771 707L1029 683L1286 662L1543 745L1800 648L1800 1001L1543 1001L1286 1001L1029 1001L771 1001L514 1001L257 1001L0 1001Z" fill="#52aef9"></path><path d="M0 747L257 725L514 719L771 661L1029 731L1286 685L1543 740L1800 661L1800 1001L1543 1001L1286 1001L1029 1001L771 1001L514 1001L257 1001L0 1001Z" fill="#2e9efd"></path><path d="M0 852L257 804L514 728L771 807L1029 732L1286 758L1543 766L1800 753L1800 1001L1543 1001L1286 1001L1029 1001L771 1001L514 1001L257 1001L0 1001Z" fill="#008dff"></path><path d="M0 844L257 868L514 883L771 874L1029 836L1286 861L1543 901L1800 845L1800 1001L1543 1001L1286 1001L1029 1001L771 1001L514 1001L257 1001L0 1001Z" fill="#007bff"></path><path d="M0 925L257 899L514 893L771 913L1029 875L1286 921L1543 902L1800 941L1800 1001L1543 1001L1286 1001L1029 1001L771 1001L514 1001L257 1001L0 1001Z" fill="#0066ff"></path></svg>